<mxfile host="65bd71144e">
    <diagram id="CoR4bn1dC7p_Gk3SiuD0" name="Page-1">
        <mxGraphModel dx="897" dy="619" grid="1" gridSize="10" guides="1" tooltips="1" connect="1" arrows="1" fold="1" page="1" pageScale="1" pageWidth="827" pageHeight="1169" math="0" shadow="0">
            <root>
                <mxCell id="0"/>
                <mxCell id="1" parent="0"/>
                <mxCell id="8" value="" style="edgeStyle=none;html=1;" parent="1" source="4" target="7" edge="1">
                    <mxGeometry relative="1" as="geometry"/>
                </mxCell>
                <mxCell id="4" value="INICIO" style="shape=ellipse;html=1;dashed=0;whitespace=wrap;aspect=fixed;perimeter=ellipsePerimeter;" parent="1" vertex="1">
                    <mxGeometry x="40" y="50" width="60" height="60" as="geometry"/>
                </mxCell>
                <mxCell id="10" value="" style="edgeStyle=none;html=1;" parent="1" source="7" target="9" edge="1">
                    <mxGeometry relative="1" as="geometry"/>
                </mxCell>
                <mxCell id="7" value="n, cifra: ENTERO" style="whiteSpace=wrap;html=1;dashed=0;" parent="1" vertex="1">
                    <mxGeometry x="150" y="50" width="120" height="60" as="geometry"/>
                </mxCell>
                <mxCell id="14" value="" style="edgeStyle=none;html=1;" parent="1" source="9" target="13" edge="1">
                    <mxGeometry relative="1" as="geometry"/>
                </mxCell>
                <mxCell id="9" value="ESCRIBIR:&quot;Ingrese un numero&quot;&lt;br&gt;LEER: n" style="shape=parallelogram;perimeter=parallelogramPerimeter;whiteSpace=wrap;html=1;fixedSize=1;dashed=0;" parent="1" vertex="1">
                    <mxGeometry x="350" y="50" width="250" height="60" as="geometry"/>
                </mxCell>
                <mxCell id="15" style="edgeStyle=none;html=1;entryX=1;entryY=0.5;entryDx=0;entryDy=0;" parent="1" source="13" target="9" edge="1">
                    <mxGeometry relative="1" as="geometry">
                        <Array as="points">
                            <mxPoint x="590" y="220"/>
                        </Array>
                    </mxGeometry>
                </mxCell>
                <mxCell id="16" value="SI" style="edgeLabel;html=1;align=center;verticalAlign=middle;resizable=0;points=[];" parent="15" vertex="1" connectable="0">
                    <mxGeometry x="-0.6837" y="-2" relative="1" as="geometry">
                        <mxPoint y="-12" as="offset"/>
                    </mxGeometry>
                </mxCell>
                <mxCell id="18" value="" style="edgeStyle=none;html=1;" parent="1" source="13" target="17" edge="1">
                    <mxGeometry relative="1" as="geometry"/>
                </mxCell>
                <mxCell id="19" value="NO" style="edgeLabel;html=1;align=center;verticalAlign=middle;resizable=0;points=[];" parent="18" vertex="1" connectable="0">
                    <mxGeometry x="0.0333" y="-1" relative="1" as="geometry">
                        <mxPoint y="11" as="offset"/>
                    </mxGeometry>
                </mxCell>
                <mxCell id="13" value="n &amp;lt; 0" style="rhombus;whiteSpace=wrap;html=1;dashed=0;" parent="1" vertex="1">
                    <mxGeometry x="435" y="180" width="80" height="80" as="geometry"/>
                </mxCell>
                <mxCell id="21" value="" style="edgeStyle=none;html=1;" parent="1" source="17" target="20" edge="1">
                    <mxGeometry relative="1" as="geometry"/>
                </mxCell>
                <mxCell id="17" value="cifra = n" style="whiteSpace=wrap;html=1;dashed=0;" parent="1" vertex="1">
                    <mxGeometry x="255" y="190" width="120" height="60" as="geometry"/>
                </mxCell>
                <mxCell id="25" value="" style="edgeStyle=none;html=1;" parent="1" source="20" target="24" edge="1">
                    <mxGeometry relative="1" as="geometry"/>
                </mxCell>
                <mxCell id="28" value="NO" style="edgeLabel;html=1;align=center;verticalAlign=middle;resizable=0;points=[];" parent="25" vertex="1" connectable="0">
                    <mxGeometry x="-0.3371" y="-1" relative="1" as="geometry">
                        <mxPoint x="10" y="-11" as="offset"/>
                    </mxGeometry>
                </mxCell>
                <mxCell id="30" value="" style="edgeStyle=none;html=1;" parent="1" source="20" target="29" edge="1">
                    <mxGeometry relative="1" as="geometry"/>
                </mxCell>
                <mxCell id="31" value="SI" style="edgeLabel;html=1;align=center;verticalAlign=middle;resizable=0;points=[];" parent="30" vertex="1" connectable="0">
                    <mxGeometry x="-0.2258" relative="1" as="geometry">
                        <mxPoint y="-10" as="offset"/>
                    </mxGeometry>
                </mxCell>
                <mxCell id="20" value="cifra &amp;gt;= 10" style="rhombus;whiteSpace=wrap;html=1;dashed=0;" parent="1" vertex="1">
                    <mxGeometry x="260" y="300" width="115" height="100" as="geometry"/>
                </mxCell>
                <mxCell id="27" value="" style="edgeStyle=none;html=1;" parent="1" source="24" target="26" edge="1">
                    <mxGeometry relative="1" as="geometry"/>
                </mxCell>
                <mxCell id="24" value="ESCRIBIR:&lt;br&gt;&quot;La primera cifra es: cifra&quot;" style="shape=parallelogram;perimeter=parallelogramPerimeter;whiteSpace=wrap;html=1;fixedSize=1;dashed=0;" parent="1" vertex="1">
                    <mxGeometry x="452.5" y="320" width="207.5" height="60" as="geometry"/>
                </mxCell>
                <mxCell id="26" value="FIN" style="ellipse;whiteSpace=wrap;html=1;dashed=0;" parent="1" vertex="1">
                    <mxGeometry x="355" y="410" width="65" height="60" as="geometry"/>
                </mxCell>
                <mxCell id="32" style="edgeStyle=none;html=1;entryX=0.5;entryY=0;entryDx=0;entryDy=0;" parent="1" source="29" target="20" edge="1">
                    <mxGeometry relative="1" as="geometry">
                        <Array as="points">
                            <mxPoint x="123" y="300"/>
                        </Array>
                    </mxGeometry>
                </mxCell>
                <mxCell id="29" value="cifra = cifra / 10" style="whiteSpace=wrap;html=1;dashed=0;" parent="1" vertex="1">
                    <mxGeometry x="62.5" y="320" width="120" height="60" as="geometry"/>
                </mxCell>
            </root>
        </mxGraphModel>
    </diagram>
    <diagram id="v7KfF0Qet-2Oy9ielr_x" name="Page-2">
        <mxGraphModel dx="897" dy="619" grid="1" gridSize="10" guides="1" tooltips="1" connect="1" arrows="1" fold="1" page="1" pageScale="1" pageWidth="827" pageHeight="1169" math="0" shadow="0">
            <root>
                <mxCell id="0"/>
                <mxCell id="1" parent="0"/>
                <mxCell id="33ylY8yf03T34vVbHJay-3" value="" style="edgeStyle=none;html=1;" parent="1" source="33ylY8yf03T34vVbHJay-1" target="33ylY8yf03T34vVbHJay-2" edge="1">
                    <mxGeometry relative="1" as="geometry"/>
                </mxCell>
                <mxCell id="33ylY8yf03T34vVbHJay-1" value="INICIO" style="ellipse;whiteSpace=wrap;html=1;" parent="1" vertex="1">
                    <mxGeometry x="30" y="80" width="80" height="80" as="geometry"/>
                </mxCell>
                <mxCell id="33ylY8yf03T34vVbHJay-5" value="" style="edgeStyle=none;html=1;" parent="1" source="33ylY8yf03T34vVbHJay-2" target="33ylY8yf03T34vVbHJay-4" edge="1">
                    <mxGeometry relative="1" as="geometry"/>
                </mxCell>
                <mxCell id="33ylY8yf03T34vVbHJay-2" value="opcion: ENTERO&lt;br&gt;cantidad:REAL&lt;br&gt;res: REAL&lt;br&gt;" style="whiteSpace=wrap;html=1;" parent="1" vertex="1">
                    <mxGeometry x="170" y="90" width="120" height="60" as="geometry"/>
                </mxCell>
                <mxCell id="33ylY8yf03T34vVbHJay-7" value="" style="edgeStyle=none;html=1;" parent="1" source="33ylY8yf03T34vVbHJay-4" target="33ylY8yf03T34vVbHJay-6" edge="1">
                    <mxGeometry relative="1" as="geometry"/>
                </mxCell>
                <mxCell id="33ylY8yf03T34vVbHJay-4" value="ESCRIBIR:&quot;1 PESETAS A EURO&quot;&lt;br&gt;ESCRIBIR:&quot;2 EUROS A PESETAS&quot;&lt;br&gt;LEER: opcion" style="shape=parallelogram;perimeter=parallelogramPerimeter;whiteSpace=wrap;html=1;fixedSize=1;" parent="1" vertex="1">
                    <mxGeometry x="370" y="90" width="250" height="60" as="geometry"/>
                </mxCell>
                <mxCell id="33ylY8yf03T34vVbHJay-11" style="edgeStyle=none;html=1;entryX=1;entryY=0.5;entryDx=0;entryDy=0;" parent="1" source="33ylY8yf03T34vVbHJay-6" target="33ylY8yf03T34vVbHJay-4" edge="1">
                    <mxGeometry relative="1" as="geometry">
                        <Array as="points">
                            <mxPoint x="610" y="240"/>
                        </Array>
                    </mxGeometry>
                </mxCell>
                <mxCell id="33ylY8yf03T34vVbHJay-12" value="NO" style="edgeLabel;html=1;align=center;verticalAlign=middle;resizable=0;points=[];" parent="33ylY8yf03T34vVbHJay-11" vertex="1" connectable="0">
                    <mxGeometry x="-0.0085" y="-4" relative="1" as="geometry">
                        <mxPoint x="6" as="offset"/>
                    </mxGeometry>
                </mxCell>
                <mxCell id="33ylY8yf03T34vVbHJay-16" value="" style="edgeStyle=none;html=1;" parent="1" source="33ylY8yf03T34vVbHJay-6" target="33ylY8yf03T34vVbHJay-15" edge="1">
                    <mxGeometry relative="1" as="geometry"/>
                </mxCell>
                <mxCell id="33ylY8yf03T34vVbHJay-29" value="SI" style="edgeLabel;html=1;align=center;verticalAlign=middle;resizable=0;points=[];" parent="33ylY8yf03T34vVbHJay-16" vertex="1" connectable="0">
                    <mxGeometry x="-0.1429" y="-1" relative="1" as="geometry">
                        <mxPoint y="-14" as="offset"/>
                    </mxGeometry>
                </mxCell>
                <mxCell id="33ylY8yf03T34vVbHJay-6" value="opcion = 1 OR 2" style="rhombus;whiteSpace=wrap;html=1;" parent="1" vertex="1">
                    <mxGeometry x="437.5" y="195" width="117.5" height="90" as="geometry"/>
                </mxCell>
                <mxCell id="33ylY8yf03T34vVbHJay-24" value="" style="edgeStyle=none;html=1;" parent="1" source="33ylY8yf03T34vVbHJay-15" target="33ylY8yf03T34vVbHJay-23" edge="1">
                    <mxGeometry relative="1" as="geometry"/>
                </mxCell>
                <mxCell id="33ylY8yf03T34vVbHJay-28" value="SI" style="edgeLabel;html=1;align=center;verticalAlign=middle;resizable=0;points=[];" parent="33ylY8yf03T34vVbHJay-24" vertex="1" connectable="0">
                    <mxGeometry x="-0.0857" y="-2" relative="1" as="geometry">
                        <mxPoint y="-5" as="offset"/>
                    </mxGeometry>
                </mxCell>
                <mxCell id="33ylY8yf03T34vVbHJay-26" value="" style="edgeStyle=none;html=1;" parent="1" source="33ylY8yf03T34vVbHJay-15" target="33ylY8yf03T34vVbHJay-25" edge="1">
                    <mxGeometry relative="1" as="geometry"/>
                </mxCell>
                <mxCell id="33ylY8yf03T34vVbHJay-27" value="NO" style="edgeLabel;html=1;align=center;verticalAlign=middle;resizable=0;points=[];" parent="33ylY8yf03T34vVbHJay-26" vertex="1" connectable="0">
                    <mxGeometry x="-0.1897" y="2" relative="1" as="geometry">
                        <mxPoint x="8" y="5" as="offset"/>
                    </mxGeometry>
                </mxCell>
                <mxCell id="33ylY8yf03T34vVbHJay-15" value="opcion = 1" style="rhombus;whiteSpace=wrap;html=1;" parent="1" vertex="1">
                    <mxGeometry x="270" y="195" width="100" height="95" as="geometry"/>
                </mxCell>
                <mxCell id="33ylY8yf03T34vVbHJay-31" value="" style="edgeStyle=none;html=1;" parent="1" source="33ylY8yf03T34vVbHJay-23" target="33ylY8yf03T34vVbHJay-30" edge="1">
                    <mxGeometry relative="1" as="geometry"/>
                </mxCell>
                <mxCell id="33ylY8yf03T34vVbHJay-23" value="ESCRIBIR:&quot;INGRESE PESETAS&quot;&lt;br&gt;LEER: cantidad" style="shape=parallelogram;perimeter=parallelogramPerimeter;whiteSpace=wrap;html=1;fixedSize=1;" parent="1" vertex="1">
                    <mxGeometry x="55" y="212.5" width="160" height="60" as="geometry"/>
                </mxCell>
                <mxCell id="33ylY8yf03T34vVbHJay-33" value="" style="edgeStyle=none;html=1;" parent="1" source="33ylY8yf03T34vVbHJay-25" target="33ylY8yf03T34vVbHJay-32" edge="1">
                    <mxGeometry relative="1" as="geometry"/>
                </mxCell>
                <mxCell id="33ylY8yf03T34vVbHJay-25" value="ESCRIBIR:&quot;INGRESE EUROS&quot;&lt;br&gt;LEER: cantidad" style="shape=parallelogram;perimeter=parallelogramPerimeter;whiteSpace=wrap;html=1;fixedSize=1;" parent="1" vertex="1">
                    <mxGeometry x="215" y="350" width="210" height="60" as="geometry"/>
                </mxCell>
                <mxCell id="33ylY8yf03T34vVbHJay-35" value="" style="edgeStyle=none;html=1;exitX=0.5;exitY=1;exitDx=0;exitDy=0;" parent="1" source="33ylY8yf03T34vVbHJay-30" target="33ylY8yf03T34vVbHJay-34" edge="1">
                    <mxGeometry relative="1" as="geometry"/>
                </mxCell>
                <mxCell id="33ylY8yf03T34vVbHJay-30" value="res =&lt;br&gt;&amp;nbsp;cantidad %166,386" style="rhombus;whiteSpace=wrap;html=1;" parent="1" vertex="1">
                    <mxGeometry x="66.88" y="300" width="136.25" height="120" as="geometry"/>
                </mxCell>
                <mxCell id="33ylY8yf03T34vVbHJay-37" value="" style="edgeStyle=none;html=1;exitX=0.5;exitY=1;exitDx=0;exitDy=0;" parent="1" source="33ylY8yf03T34vVbHJay-32" target="33ylY8yf03T34vVbHJay-36" edge="1">
                    <mxGeometry relative="1" as="geometry"/>
                </mxCell>
                <mxCell id="33ylY8yf03T34vVbHJay-32" value="res =&lt;br&gt;&amp;nbsp;cantidad * 166,386" style="rhombus;whiteSpace=wrap;html=1;" parent="1" vertex="1">
                    <mxGeometry x="450" y="320" width="130" height="120" as="geometry"/>
                </mxCell>
                <mxCell id="33ylY8yf03T34vVbHJay-39" value="" style="edgeStyle=none;html=1;" parent="1" source="33ylY8yf03T34vVbHJay-34" target="33ylY8yf03T34vVbHJay-38" edge="1">
                    <mxGeometry relative="1" as="geometry"/>
                </mxCell>
                <mxCell id="33ylY8yf03T34vVbHJay-34" value="ESCRIBIR:&lt;br&gt;&amp;nbsp;&quot;La cantidad de pesetas son res Euros&quot;" style="shape=parallelogram;perimeter=parallelogramPerimeter;whiteSpace=wrap;html=1;fixedSize=1;" parent="1" vertex="1">
                    <mxGeometry x="15" y="460" width="275" height="70" as="geometry"/>
                </mxCell>
                <mxCell id="33ylY8yf03T34vVbHJay-40" style="edgeStyle=none;html=1;" parent="1" source="33ylY8yf03T34vVbHJay-36" target="33ylY8yf03T34vVbHJay-38" edge="1">
                    <mxGeometry relative="1" as="geometry"/>
                </mxCell>
                <mxCell id="33ylY8yf03T34vVbHJay-36" value="ESCRIBIR:&lt;br&gt;&quot;La cantidad de Euros son res pesetas&quot;" style="shape=parallelogram;perimeter=parallelogramPerimeter;whiteSpace=wrap;html=1;fixedSize=1;" parent="1" vertex="1">
                    <mxGeometry x="360" y="485" width="290" height="60" as="geometry"/>
                </mxCell>
                <mxCell id="33ylY8yf03T34vVbHJay-38" value="FIN" style="ellipse;whiteSpace=wrap;html=1;" parent="1" vertex="1">
                    <mxGeometry x="270" y="560" width="80" height="80" as="geometry"/>
                </mxCell>
            </root>
        </mxGraphModel>
    </diagram>
</mxfile>